# xmcd
#
# Track frame offsets: 
#        150
#        14416
#        29561
#        47576
#        61421
#        75946
#        92452
#        107235
#        121341
#        137308
#        160009
#        178350
#        195892
#        209237
#        225443
#        242403
#        255430
#        269616
#
# Disc length: 3765 seconds
#
# Revision: 0
# Processed by: cddbd v1.5.2PL0 Copyright (c) Steve Scherf et al.
# Submitted via: ExactAudioCopy v1.1
#
DISCID=e70eb312
DTITLE=張明敏 - 中國人中國心 SACD 精選
DYEAR=2002
DGENRE=Country
TTITLE0=我的中國心
TTITLE1=爸爸的草鞋
TTITLE2=我是中國人
TTITLE3=中華民族
TTITLE4=壟上行
TTITLE5=一翦梅
TTITLE6=龍的傳人
TTITLE7=長城謠
TTITLE8=夢駝鈴
TTITLE9=龍的故鄉
TTITLE10=蒙塵的巨龍
TTITLE11=黃河願
TTITLE12=年輕人的心聲
TTITLE13=鄉問的小路
TTITLE14=我們擁有一個名字叫中國
TTITLE15=拜訪春天
TTITLE16=又見柳葉青
TTITLE17=畢業生
EXTD=
EXTT0=
EXTT1=
EXTT2=
EXTT3=
EXTT4=
EXTT5=
EXTT6=
EXTT7=
EXTT8=
EXTT9=
EXTT10=
EXTT11=
EXTT12=
EXTT13=
EXTT14=
EXTT15=
EXTT16=
EXTT17=
PLAYORDER=
